<svg style="display: none;">
	<symbol id="user-i" width="28px" height="27px" viewbox="0 0 28 27">
		<path fill-rule="evenodd"  fill="rgb(255, 255, 255)"
		d="M27.011,27.000 L0.988,27.000 C0.437,27.000 -0.000,26.558 -0.000,25.999 C-0.000,20.739 4.230,16.479 9.402,16.479 L18.598,16.479 C23.793,16.479 28.000,20.762 28.000,25.999 C28.000,26.558 27.563,27.000 27.011,27.000 ZM18.598,18.481 L9.402,18.481 C5.632,18.481 2.529,21.344 2.046,24.998 L25.954,24.998 C25.471,21.320 22.368,18.481 18.598,18.481 ZM13.954,15.152 C9.816,15.152 6.460,11.731 6.460,7.565 C6.460,3.398 9.816,-0.000 13.954,-0.000 C18.092,-0.000 21.448,3.375 21.448,7.565 C21.448,11.754 18.092,15.152 13.954,15.152 ZM13.954,1.978 C10.920,1.978 8.437,4.492 8.437,7.565 C8.437,10.637 10.920,13.151 13.954,13.151 C16.988,13.151 19.471,10.637 19.471,7.565 C19.471,4.492 16.988,1.978 13.954,1.978 Z"/>
 	</symbol>
	<symbol id="search-i" width="24px" height="24px" viewbox="0 0 24 24">
		<path fill-rule="evenodd"  fill="rgb(255, 255, 255)"
		 d="M23.341,23.340 C22.463,24.219 21.038,24.219 20.159,23.340 L14.653,17.834 C15.929,17.014 17.014,15.928 17.834,14.652 L23.341,20.159 C24.219,21.038 24.219,22.463 23.341,23.340 ZM9.000,17.999 C4.030,17.999 0.000,13.970 0.000,9.000 C0.000,4.029 4.030,-0.000 9.000,-0.000 C13.970,-0.000 18.000,4.029 18.000,9.000 C18.000,13.970 13.970,17.999 9.000,17.999 ZM9.000,2.250 C5.278,2.250 2.250,5.277 2.250,9.000 C2.250,12.722 5.278,15.750 9.000,15.750 C12.722,15.750 15.750,12.722 15.750,9.000 C15.750,5.277 12.722,2.250 9.000,2.250 ZM5.250,9.000 L3.750,9.000 C3.750,6.105 6.105,3.750 9.000,3.750 L9.000,5.250 C6.932,5.250 5.250,6.932 5.250,9.000 Z"/>
 	</symbol>
 	<symbol id="calendar-i" width="24px" height="24px" viewbox="0 0 28 26">
		<path fill-rule="evenodd"  fill="rgb(255, 255, 255)"
 		d="M13.895,12.631 L13.895,12.631 C13.196,12.631 12.631,13.196 12.631,13.895 C12.631,14.592 13.198,15.158 13.895,15.158 L13.895,15.158 C14.592,15.158 15.158,14.592 15.158,13.895 C15.158,13.196 14.593,12.631 13.895,12.631 ZM10.105,11.368 C10.802,11.368 11.368,10.802 11.368,10.105 C11.368,9.407 10.802,8.842 10.105,8.842 C9.408,8.842 8.842,9.407 8.842,10.105 C8.842,10.802 9.408,11.368 10.105,11.368 ZM13.895,8.842 L13.895,8.842 C13.196,8.842 12.631,9.407 12.631,10.105 C12.631,10.802 13.196,11.368 13.895,11.368 L13.895,11.368 C14.592,11.368 15.158,10.802 15.158,10.105 C15.158,9.407 14.593,8.842 13.895,8.842 ZM15.158,2.526 L8.842,2.526 L8.842,5.052 L15.158,5.052 L15.158,2.526 ZM17.684,11.368 C18.381,11.368 18.947,10.802 18.947,10.105 C18.947,9.407 18.382,8.842 17.684,8.842 C16.986,8.842 16.421,9.407 16.421,10.105 C16.421,10.802 16.987,11.368 17.684,11.368 ZM17.684,15.158 C18.381,15.158 18.947,14.592 18.947,13.895 C18.947,13.196 18.382,12.631 17.684,12.631 C16.986,12.631 16.421,13.196 16.421,13.895 C16.421,14.592 16.987,15.158 17.684,15.158 ZM10.105,15.158 C10.802,15.158 11.368,14.592 11.368,13.895 C11.368,13.196 10.803,12.631 10.105,12.631 C9.407,12.631 8.842,13.196 8.842,13.895 C8.842,14.592 9.408,15.158 10.105,15.158 ZM6.316,18.947 C7.013,18.947 7.579,18.381 7.579,17.684 C7.579,16.986 7.013,16.421 6.316,16.421 C5.618,16.421 5.053,16.986 5.053,17.684 C5.053,18.381 5.618,18.947 6.316,18.947 ZM21.474,2.526 L20.210,2.526 L20.210,5.052 L21.474,5.052 L21.474,21.474 L2.526,21.474 L2.526,5.052 L3.789,5.052 L3.789,2.526 L2.526,2.526 C1.131,2.526 -0.000,3.657 -0.000,5.052 L-0.000,21.473 C-0.000,22.869 1.131,24.000 2.526,24.000 L21.474,24.000 C22.869,24.000 24.000,22.869 24.000,21.473 L24.000,5.052 C24.000,3.657 22.869,2.526 21.474,2.526 ZM6.316,15.158 C7.013,15.158 7.579,14.592 7.579,13.895 C7.579,13.196 7.013,12.631 6.316,12.631 C5.618,12.631 5.053,13.196 5.053,13.895 C5.053,14.592 5.618,15.158 6.316,15.158 ZM6.316,11.368 C7.013,11.368 7.579,10.802 7.579,10.105 C7.579,9.407 7.013,8.842 6.316,8.842 C5.618,8.842 5.053,9.407 5.053,10.105 C5.053,10.802 5.618,11.368 6.316,11.368 ZM10.105,18.947 C10.802,18.947 11.368,18.381 11.368,17.684 C11.368,16.986 10.802,16.421 10.105,16.421 C9.408,16.421 8.842,16.986 8.842,17.684 C8.842,18.381 9.408,18.947 10.105,18.947 ZM6.316,5.052 C7.013,5.052 7.579,4.487 7.579,3.789 L7.579,1.263 C7.579,0.565 7.014,-0.000 6.316,-0.000 C5.618,-0.000 5.053,0.565 5.053,1.263 L5.053,3.789 C5.053,4.487 5.618,5.052 6.316,5.052 ZM17.684,5.052 C18.381,5.052 18.947,4.487 18.947,3.789 L18.947,1.263 C18.947,0.565 18.381,-0.000 17.684,-0.000 C16.986,-0.000 16.421,0.565 16.421,1.263 L16.421,3.789 C16.421,4.487 16.987,5.052 17.684,5.052 Z"/>
 	</symbol>

 	<symbol id="chevron-left-i" width="20px" height="33px" viewbox="0 0 20 33">
		<path fill-rule="evenodd"
 		d="M16.216,-0.000 L20.000,3.850 L7.567,16.499 L20.000,29.150 L16.216,33.000 L0.000,16.499 L16.216,-0.000 Z"/>
 	</symbol>

 	<symbol id="chevron-right-i" width="20px" height="33px" viewbox="0 0 20 33">
		<path fill-rule="evenodd"
 		d="M3.784,-0.000 L0.000,3.850 L12.432,16.499 L0.000,29.150 L3.784,33.000 L20.000,16.499 L3.784,-0.000 Z"/>
 	</symbol>

 	<symbol id="close-i" width="30px" height="30px" viewbox="0 0 30 30">
		<path fill-rule="evenodd"  fill="rgb(255, 255, 255)"
	 	d="M0.405,2.486 C-0.157,1.923 -0.157,0.986 0.405,0.404 C0.988,-0.159 1.904,-0.159 2.486,0.404 L14.976,12.918 L27.486,0.404 C28.048,-0.159 28.984,-0.159 29.546,0.404 C30.128,0.986 30.128,1.925 29.546,2.486 L17.057,14.980 L29.546,27.494 C30.128,28.057 30.128,28.993 29.546,29.576 C28.983,30.139 28.047,30.139 27.486,29.576 L14.976,17.062 L2.486,29.576 C1.904,30.139 0.988,30.139 0.405,29.576 C-0.157,28.993 -0.157,28.055 0.405,27.494 L12.894,14.980 L0.405,2.486 Z"/>
	 </symbol>

	 <symbol id="quote-i" width="26px" height="27px" viewbox="0 0 26 27">
		<path fill-rule="evenodd"  fill="rgb(140, 140, 140)"
		 d="M25.455,5.019 C24.329,5.099 23.401,5.531 22.618,6.340 C19.722,9.328 19.631,16.026 19.631,16.781 L24.230,16.781 C24.554,16.781 24.817,17.045 24.817,17.370 L24.817,26.410 C24.817,26.734 24.554,26.998 24.230,26.998 L15.229,26.998 C14.905,26.998 14.642,26.734 14.642,26.410 L14.642,17.256 C14.618,16.286 14.531,7.509 19.029,2.853 C20.725,1.097 22.924,0.111 25.387,0.001 C25.553,-0.009 25.703,0.053 25.819,0.164 C25.935,0.275 26.000,0.429 26.000,0.590 L26.000,4.431 C26.000,4.740 25.762,4.997 25.455,5.019 ZM10.813,5.019 C9.688,5.099 8.760,5.531 7.976,6.340 C5.080,9.328 4.990,16.026 4.989,16.781 L9.589,16.781 C9.913,16.781 10.175,17.045 10.175,17.370 L10.175,26.410 C10.175,26.734 9.913,26.998 9.589,26.998 L0.588,26.998 C0.264,26.998 0.001,26.734 0.001,26.410 L0.001,17.256 C-0.024,16.286 -0.110,7.509 4.387,2.853 C6.084,1.097 8.283,0.111 10.746,0.001 C10.908,-0.009 11.062,0.053 11.177,0.164 C11.293,0.275 11.358,0.429 11.358,0.590 L11.358,4.431 C11.358,4.740 11.121,4.997 10.813,5.019 Z"/>
	 </symbol>
</svg>